<mxfile host="app.diagrams.net" modified="2023-11-28T13:46:26.852Z" agent="Mozilla/5.0 (Windows NT 10.0; Win64; x64) AppleWebKit/537.36 (KHTML, like Gecko) Chrome/119.0.0.0 Safari/537.36" version="22.1.4" etag="61Q5YragMQDE_reH3lAn" type="github">
  <diagram name="Halaman-1" id="liOZDZmXp4yw3BDN1jqh">
    <mxGraphModel>
      <root>
        <mxCell id="0" />
        <mxCell id="1" parent="0" />
      </root>
    </mxGraphModel>
  </diagram>
</mxfile>
